HIERARCHY
ROOT root
{
	OFFSET	0.00	0.00	0.00
	CHANNELS 6 Xposition Yposition Zposition Zrotation Xrotation Yrotation
	JOINT back
	{
		OFFSET	 0.352955	 0.000000	 0.000000
		CHANNELS 3 Zrotation Xrotation Yrotation
		JOINT chest
		{
			OFFSET	 0.264817	 0.004177	 0.000000
			CHANNELS 3 Zrotation Xrotation Yrotation
			JOINT l_clavicle
			{
				OFFSET	 0.114550	 0.000716	-0.065320
				CHANNELS 3 Zrotation Xrotation Yrotation
				JOINT l_end_clavicle
				{
					OFFSET	 0.162817	-0.003802	 0.000069
					CHANNELS 3 Zrotation Xrotation Yrotation
					JOINT l_shoulder
					{
						OFFSET	 0.000000	 0.000000	 0.000000
						CHANNELS 3 Zrotation Xrotation Yrotation
						JOINT l_forearm
						{
							OFFSET	 0.266368	 0.006912	-0.045869
							CHANNELS 3 Zrotation Xrotation Yrotation
							JOINT l_end_wrist
							{
								OFFSET	 0.317021	-0.006522	 0.006333
								CHANNELS 3 Zrotation Xrotation Yrotation
								JOINT l_index1
								{
									OFFSET	 0.152748	-0.021000	-0.014320
									CHANNELS 3 Zrotation Xrotation Yrotation
									JOINT l_index2
									{
										OFFSET	 0.039283	 0.000000	 0.000000
										CHANNELS 3 Zrotation Xrotation Yrotation
										JOINT l_index3
										{
											OFFSET	 0.038151	 0.000000	 0.000000
											CHANNELS 3 Zrotation Xrotation Yrotation
											End Site
											{
												OFFSET	 0.038151	 0.000000	 0.000000
											}
										}
									}
								}
								JOINT l_middle1
								{
									OFFSET	 0.151723	 0.016194	-0.014667
									CHANNELS 3 Zrotation Xrotation Yrotation
									JOINT l_middle_2
									{
										OFFSET	 0.038269	 0.000000	 0.000000
										CHANNELS 3 Zrotation Xrotation Yrotation
										JOINT l_middle_3
										{
											OFFSET	 0.039743	 0.000000	 0.000000
											CHANNELS 3 Zrotation Xrotation Yrotation
											End Site
											{
												OFFSET	 0.039743	 0.000000	 0.000000
											}
										}
									}
								}
								JOINT l_pinky1
								{
									OFFSET	 0.117088	 0.077397	-0.013819
									CHANNELS 3 Zrotation Xrotation Yrotation
									JOINT l_pinky2
									{
										OFFSET	 0.028938	 0.000000	 0.000000
										CHANNELS 3 Zrotation Xrotation Yrotation
										JOINT l_pinky3
										{
											OFFSET	 0.027080	 0.000000	 0.000000
											CHANNELS 3 Zrotation Xrotation Yrotation
											End Site
											{
												OFFSET	 0.027080	 0.000000	 0.000000
											}
										}
									}
								}
								JOINT l_ring1
								{
									OFFSET	 0.137788	 0.047650	-0.014135
									CHANNELS 3 Zrotation Xrotation Yrotation
									JOINT l_ring2
									{
										OFFSET	 0.030749	 0.000000	 0.000000
										CHANNELS 3 Zrotation Xrotation Yrotation
										JOINT l_ring3
										{
											OFFSET	 0.032711	 0.000000	 0.000000
											CHANNELS 3 Zrotation Xrotation Yrotation
											End Site
											{
												OFFSET	 0.032711	 0.000000	 0.000000
											}
										}
									}
								}
								JOINT l_thumb1
								{
									OFFSET	 0.054053	-0.036728	-0.011261
									CHANNELS 3 Zrotation Xrotation Yrotation
									JOINT l_thumb_2
									{
										OFFSET	 0.051141	-0.005593	-0.001180
										CHANNELS 3 Zrotation Xrotation Yrotation
										JOINT l_thumb_3
										{
											OFFSET	 0.046422	-0.001905	 0.000191
											CHANNELS 3 Zrotation Xrotation Yrotation
											End Site
											{
												OFFSET	 0.046422	-0.001905	 0.000191
											}
										}
									}
								}
							}
						}
					}
				}
			}
			JOINT neck
			{
				OFFSET	 0.143918	 0.000470	 0.000000
				CHANNELS 3 Zrotation Xrotation Yrotation
				JOINT head
				{
					OFFSET	 0.000000	-0.000205	 0.055236
					CHANNELS 3 Zrotation Xrotation Yrotation
					End Site
					{
						OFFSET	 0.000000	-0.000205	 0.055236
					}
				}
			}
			JOINT r_clavicle
			{
				OFFSET	 0.114552	 0.000716	 0.065320
				CHANNELS 3 Zrotation Xrotation Yrotation
				JOINT r_end_clavicle
				{
					OFFSET	-0.162817	 0.003801	-0.000067
					CHANNELS 3 Zrotation Xrotation Yrotation
					JOINT r_shoulder
					{
						OFFSET	 0.000000	 0.000000	 0.000000
						CHANNELS 3 Zrotation Xrotation Yrotation
						JOINT r_forearm
						{
							OFFSET	-0.266367	-0.006912	 0.045867
							CHANNELS 3 Zrotation Xrotation Yrotation
							JOINT r_end_wrist
							{
								OFFSET	-0.317022	 0.006522	-0.006331
								CHANNELS 3 Zrotation Xrotation Yrotation
								JOINT r_index1
								{
									OFFSET	-0.152748	 0.021000	 0.014322
									CHANNELS 3 Zrotation Xrotation Yrotation
									JOINT r_index2
									{
										OFFSET	-0.039280	 0.000000	-0.000001
										CHANNELS 3 Zrotation Xrotation Yrotation
										JOINT r_index3
										{
											OFFSET	-0.038152	 0.000000	-0.000001
											CHANNELS 3 Zrotation Xrotation Yrotation
											End Site
											{
												OFFSET	-0.038152	 0.000000	-0.000001
											}
										}
									}
								}
								JOINT r_middle1
								{
									OFFSET	-0.151722	-0.016194	 0.014664
									CHANNELS 3 Zrotation Xrotation Yrotation
									JOINT r_middle_2
									{
										OFFSET	-0.038270	 0.000000	 0.000003
										CHANNELS 3 Zrotation Xrotation Yrotation
										JOINT r_middle_3
										{
											OFFSET	-0.039744	 0.000000	 0.000000
											CHANNELS 3 Zrotation Xrotation Yrotation
											End Site
											{
												OFFSET	-0.039744	 0.000000	 0.000000
											}
										}
									}
								}
								JOINT r_pinky1
								{
									OFFSET	-0.117090	-0.077397	 0.013818
									CHANNELS 3 Zrotation Xrotation Yrotation
									JOINT r_pinky2
									{
										OFFSET	-0.028938	 0.000000	 0.000000
										CHANNELS 3 Zrotation Xrotation Yrotation
										JOINT r_pinky3
										{
											OFFSET	-0.027079	-0.000001	 0.000000
											CHANNELS 3 Zrotation Xrotation Yrotation
											End Site
											{
												OFFSET	-0.027079	-0.000001	 0.000000
											}
										}
									}
								}
								JOINT r_ring1
								{
									OFFSET	-0.137790	-0.047650	 0.014136
									CHANNELS 3 Zrotation Xrotation Yrotation
									JOINT r_ring2
									{
										OFFSET	-0.030748	 0.000000	-0.000001
										CHANNELS 3 Zrotation Xrotation Yrotation
										JOINT r_ring3
										{
											OFFSET	-0.032707	-0.000001	 0.000003
											CHANNELS 3 Zrotation Xrotation Yrotation
											End Site
											{
												OFFSET	-0.032707	-0.000001	 0.000003
											}
										}
									}
								}
								JOINT r_thumb1
								{
									OFFSET	-0.054054	 0.036728	 0.011262
									CHANNELS 3 Zrotation Xrotation Yrotation
									JOINT r_thumb_2
									{
										OFFSET	-0.051140	 0.005594	 0.001177
										CHANNELS 3 Zrotation Xrotation Yrotation
										JOINT r_thumb_3
										{
											OFFSET	-0.046419	 0.001906	-0.000190
											CHANNELS 3 Zrotation Xrotation Yrotation
											End Site
											{
												OFFSET	-0.046419	 0.001906	-0.000190
											}
										}
									}
								}
							}
						}
					}
				}
			}
		}
	}
	JOINT Pelvis
	{
		OFFSET	 0.000000	 0.000000	 0.000000
		CHANNELS 3 Zrotation Xrotation Yrotation
		JOINT l_thigh
		{
			OFFSET	-0.000001	-0.129194	 0.000000
			CHANNELS 3 Zrotation Xrotation Yrotation
			End Site
			{
				OFFSET	-0.000001	-0.129194	 0.000000
			}
		}
		JOINT r_thigh
		{
			OFFSET	 0.000001	 0.129194	 0.000000
			CHANNELS 3 Zrotation Xrotation Yrotation
			End Site
			{
				OFFSET	 0.000001	 0.129194	 0.000000
			}
		}
	}
}
MOTION
Frames:    6
Frame Time: 0.01666667
-0.001963	 0.002454	-0.116118	 179.305400	 0.221747	-89.965800	-0.000021	 0.000000	 0.000000	-0.000021	 0.000000	 0.000000	-3.525149	 11.225090	 114.920700	-0.813313	 0.122417	-8.559153	-39.721840	-22.971270	 34.504040	-46.877240	 33.730030	 8.058828	-1.508344	 27.119350	 0.905986	-11.666870	-4.636808	 35.944750	 2.477603	-1.136251	 35.323120	 2.739605	 0.675539	-52.364350	-0.352786	 1.276010	 35.556880	-0.202301	 3.178486	 36.024460	 2.411832	 5.494030	-52.520410	 39.007590	 20.375220	 27.137650	-6.436097	 19.357820	 32.910680	-5.387433	 19.254410	-57.899170	 18.466570	 10.398590	 33.996140	-3.686892	 9.480865	 35.137450	-0.646625	 10.763470	-53.750010	-51.281710	-9.954659	 11.445530	 23.982090	-0.549087	 0.208112	 14.789960	-0.368235	 3.437935	-0.000006	 0.000001	 90.000000	-90.000000	 0.000000	-86.406780	 177.642400	 8.601227	 111.084700	-0.813313	 0.122417	-8.559153	 12.236280	 10.972310	 52.931600	-1.045101	 10.743230	-0.604093	-2.262662	 22.375880	-11.302420	-11.666870	-4.636809	 35.944760	 2.477604	-1.136251	 35.323130	 2.739605	 0.675539	-52.364380	-0.352786	 1.276010	 35.556880	-0.202300	 3.178487	 36.024460	 2.411833	 5.494030	-52.520430	 39.007590	 20.375220	 27.137660	-6.436093	 19.357820	 32.910680	-5.387434	 19.254410	-57.899150	 18.466580	 10.398590	 33.996150	-3.686890	 9.480865	 35.137440	-0.646626	 10.763470	-53.750010	-51.281720	-9.954665	 11.445540	 23.982080	-0.549088	 0.208112	 14.789960	-0.368242	 3.437935	 0.000000	 90.000000	 0.000000	 177.641500	 1.693646	 173.691800	-177.179200	-1.281514	-6.296279
-0.007028	-0.007796	-0.100832	-179.513600	 0.953646	-89.811840	-0.912530	-0.249275	-0.703491	-0.836517	-0.701505	-0.647368	-2.784154	 9.008475	 114.213700	-0.813313	 0.122417	-8.559153	-37.738850	-22.139350	 34.284540	-47.694810	 32.698700	 7.406368	-1.408257	 27.049870	-4.734243	-11.656640	-4.629881	 32.405520	 2.480718	-1.134209	 31.178330	 2.847477	 0.515061	-56.096850	 0.187084	 1.639605	 32.379480	-0.211198	 3.172445	 32.409200	 2.500596	 5.345202	-54.965690	 38.811480	 20.284320	 25.472980	-6.484088	 19.330150	 29.945220	-5.422452	 19.250130	-59.626020	 18.478540	 10.406260	 32.259720	-3.712803	 9.464003	 31.686690	-0.607787	 10.660060	-56.293630	-51.285900	-10.240490	 8.890258	 22.910120	-0.548450	 0.198770	 14.789960	-0.368235	 3.437935	 0.085197	 0.481252	 90.026930	-89.823490	-0.619718	-84.296500	 177.925500	 7.842580	 110.170700	-0.813313	 0.122417	-8.559153	 11.994200	 12.913440	 51.559450	-16.522340	 8.630418	-2.808724	 3.329794	 17.759060	-13.704720	-10.806720	-4.046454	 33.138050	 2.480318	-1.134485	 31.715300	 2.856603	 0.500383	-56.429830	 0.744754	 2.016359	 32.457230	-0.209129	 3.173766	 33.233280	 2.537799	 5.278208	-56.046740	 39.732800	 20.706510	 24.868960	-6.476605	 19.334390	 30.404960	-5.455824	 19.247130	-61.262250	 19.153510	 10.832520	 31.461220	-3.709100	 9.466396	 32.187540	-0.603367	 10.647010	-56.612510	-50.923100	-9.995549	 10.455980	 21.943280	-0.547743	 0.190358	 9.651854	-0.348952	 3.395432	 0.000000	 90.000000	 0.000000	 176.855000	 2.698174	 173.179700	-175.935600	-3.186924	-10.507350
-0.009518	-0.013394	-0.092782	-178.877800	 1.341326	-89.743190	-1.405028	-0.378951	-1.082700	-1.292210	-1.075884	-0.996544	-2.399578	 7.815390	 113.846600	-0.813313	 0.122417	-8.559153	-36.683410	-21.700560	 34.124890	-48.133510	 32.150620	 7.044948	-1.345262	 27.005940	-7.753403	-11.650970	-4.626425	 30.505360	 2.482448	-1.133207	 28.953030	 2.901015	 0.426102	-58.100600	 0.484818	 1.822149	 30.672050	-0.216127	 3.169436	 30.468210	 2.545589	 5.263781	-56.278190	 38.705210	 20.237770	 24.579460	-6.510458	 19.316270	 28.353300	-5.441304	 19.248240	-60.553040	 18.485090	 10.410260	 31.327420	-3.727128	 9.455596	 29.834080	-0.588878	 10.603870	-57.658890	-51.293480	-10.393770	 7.517409	 22.334590	-0.548029	 0.193760	 14.789960	-0.368235	 3.437935	 0.131371	 0.737913	 90.041690	-89.720100	-0.947003	-83.164270	 178.072600	 7.432996	 109.680000	-0.813313	 0.122417	-8.559153	 11.882400	 13.979430	 50.838660	-25.028520	 7.673415	-3.528173	 6.215712	 15.209430	-14.611090	-10.329810	-3.744573	 31.628810	 2.481820	-1.133608	 29.778290	 2.914206	 0.403046	-58.612330	 1.349741	 2.388653	 30.787100	-0.212890	 3.171370	 31.734050	 2.599806	 5.159337	-57.938160	 40.128290	 20.873120	 23.645990	-6.498773	 19.322520	 29.060870	-5.492521	 19.244800	-63.059350	 19.530350	 11.052820	 30.092430	-3.721338	 9.459098	 30.602650	-0.582620	 10.583700	-58.147740	-50.730940	-10.019670	 9.927823	 20.855630	-0.546765	 0.180907	 6.893256	-0.337042	 3.373376	 0.000000	 90.000000	 0.000000	 176.438500	 3.242260	 172.906000	-175.361200	-4.243080	-12.769440
-0.011545	-0.018294	-0.085878	-178.325700	 1.674738	-89.691740	-1.833823	-0.489195	-1.413292	-1.691383	-1.399815	-1.301207	-2.073176	 6.779173	 113.534800	-0.813313	 0.122417	-8.559153	-35.772540	-21.325400	 33.958540	-48.513400	 31.676720	 6.724021	-1.286281	 26.962790	-10.364070	-11.645960	-4.623580	 28.856630	 2.483980	-1.132394	 27.022180	 2.944923	 0.347436	-59.839170	 0.747196	 1.973105	 29.189730	-0.220484	 3.166962	 28.784050	 2.583097	 5.192317	-57.416820	 38.612480	 20.198690	 23.804300	-6.533659	 19.304790	 26.972110	-5.457685	 19.246830	-61.357270	 18.490860	 10.413660	 30.518460	-3.739774	 9.448673	 28.226640	-0.573583	 10.554760	-58.843280	-51.303060	-10.526600	 6.325627	 21.835200	-0.547628	 0.189415	 14.789960	-0.368235	 3.437935	 0.171990	 0.952292	 90.054860	-89.627440	-1.227876	-82.192940	 178.197400	 7.076386	 109.254000	-0.813313	 0.122417	-8.559153	 11.795690	 14.917130	 50.220030	-32.494740	 6.879252	-3.882358	 8.672783	 12.976340	-15.188360	-9.907116	-3.491138	 30.317300	 2.483146	-1.132888	 28.096790	 2.961170	 0.316829	-60.506710	 1.882985	 2.696986	 29.334230	-0.216203	 3.169371	 30.433220	 2.650337	 5.054693	-59.577360	 40.474600	 21.011150	 22.582220	-6.518220	 19.312630	 27.895930	-5.524266	 19.243660	-64.611530	 19.861590	 11.236580	 28.900060	-3.732119	 9.453034	 29.227290	-0.566043	 10.528400	-59.478220	-50.564230	-10.041680	 9.472196	 19.917640	-0.545779	 0.172774	 4.499698	-0.325862	 3.354718	 0.000000	 90.000000	 0.000000	 176.080400	 3.717274	 172.668700	-174.916800	-5.173921	-14.734140
-0.013507	-0.023573	-0.078806	-177.754000	 2.069045	-89.648710	-2.280225	-0.600634	-1.756592	-2.109303	-1.733250	-1.617913	-1.743155	 5.708891	 113.219000	-0.813313	 0.122417	-8.559153	-34.815990	-20.924770	 33.763570	-48.980920	 31.181500	 6.392633	-1.406118	 26.919940	-12.965910	-11.640710	-4.620796	 27.154710	 2.485590	-1.131607	 25.029030	 2.987723	 0.264874	-61.633750	 1.021732	 2.121553	 27.658820	-0.225056	 3.164543	 27.045550	 2.620308	 5.117784	-58.592030	 38.516330	 20.159630	 23.004180	-6.557910	 19.293500	 25.546440	-5.474608	 19.245610	-62.187310	 18.496900	 10.417100	 29.683380	-3.753028	 9.441899	 26.567350	-0.558882	 10.503770	-60.065660	-51.315880	-10.663480	 5.094833	 21.319720	-0.547176	 0.184936	 14.789960	-0.368235	 3.437935	 0.214588	 1.155747	 90.068890	-89.534100	-1.456296	-81.215950	 178.322200	 6.712423	 108.814300	-0.813313	 0.122417	-8.559153	 11.760340	 15.942290	 49.555760	-40.263610	 6.043941	-3.991413	 11.138470	 10.675830	-15.477340	-9.459497	-3.242484	 28.732180	 2.484751	-1.132084	 26.097260	 3.012183	 0.214643	-62.710370	 2.481874	 3.019880	 27.656610	-0.219667	 3.167389	 29.091360	 2.699241	 4.945376	-61.266470	 40.819560	 21.140790	 21.487670	-6.538486	 19.302820	 26.695150	-5.556903	 19.243330	-66.206240	 20.201110	 11.415240	 27.666870	-3.743392	 9.447045	 27.808430	-0.550329	 10.471020	-60.849290	-50.326980	-10.052250	 9.015555	 18.955500	-0.544631	 0.164451	 2.039209	-0.313569	 3.336046	 0.000000	 90.000000	 0.000000	 175.716000	 4.209660	 172.423200	-174.516100	-6.144168	-16.765080
-0.015486	-0.029655	-0.071164	-177.129900	 2.583035	-89.617290	-2.772320	-0.718479	-2.131475	-2.572564	-2.093140	-1.964354	-1.393219	 4.548646	 112.883400	-0.813313	 0.122417	-8.559153	-33.734950	-20.451990	 33.529430	-49.660720	 30.631030	 6.039016	-1.527632	 26.874600	-15.777200	-11.634930	-4.617955	 25.310420	 2.487364	-1.130819	 22.869130	 3.031159	 0.173940	-63.578380	 1.323095	 2.273765	 25.999060	-0.230092	 3.162080	 25.161620	 2.658884	 5.036177	-59.865290	 38.411670	 20.118800	 22.137260	-6.584514	 19.281910	 24.001600	-5.492964	 19.244550	-63.086600	 18.503560	 10.420780	 28.778430	-3.767609	 9.434987	 24.769290	-0.544206	 10.448160	-61.390090	-51.333130	-10.811460	 3.760414	 20.761100	-0.546632	 0.180084	 14.789960	-0.368235	 3.437935	 0.261815	 1.344853	 90.084760	-89.447630	-1.594016	-80.202650	 178.451400	 6.328479	 108.338400	-0.813313	 0.122417	-8.559153	 11.812680	 17.136130	 48.788400	-48.725540	 5.063895	-3.836447	 13.712220	 8.219036	-15.401080	-8.967107	-2.984180	 27.105480	 2.486429	-1.131315	 24.040780	 3.061060	 0.106292	-65.003720	 3.120304	 3.340186	 25.905430	-0.223465	 3.165334	 27.639800	 2.748438	 4.825646	-63.092010	 41.164950	 21.261590	 20.311740	-6.560639	 19.292670	 25.396630	-5.592093	 19.243940	-67.925870	 20.559970	 11.592990	 26.331170	-3.755752	 9.440884	 26.273660	-0.534919	 10.408580	-62.331460	-50.072220	-10.065860	 8.523470	 17.919630	-0.543235	 0.155510	-0.604275	-0.299478	 3.316593	 0.000000	 90.000000	 0.000000	 175.331000	 4.744106	 172.155400	-174.155400	-7.200414	-18.970300
